<svg width="143" height="22" viewBox="0 0 143 22" fill="none" xmlns="http://www.w3.org/2000/svg">
<g clip-path="url(#clip0_168_146)">
<path fill-rule="evenodd" clip-rule="evenodd" d="M79.0716 19.611C77.4601 18.8667 76.2492 17.773 75.439 16.3112C74.6209 14.8581 74.2114 13.0546 74.2114 10.9165C74.2114 8.77827 74.6121 7.04074 75.4223 5.59658C76.2325 4.15931 77.4266 3.07446 79.0224 2.34795C80.6171 1.62144 82.588 1.26114 84.9427 1.26114C87.2985 1.26114 89.2526 1.62833 90.8562 2.3637C92.4599 3.09809 93.6619 4.1849 94.4809 5.63694C95.299 7.08209 95.7085 8.86884 95.7085 10.9903C95.7085 13.1117 95.3078 14.8985 94.4976 16.3436C93.6874 17.7888 92.4933 18.8835 90.8976 19.6179C89.3028 20.3522 87.3398 20.7204 85.0008 20.7204C82.6638 20.7204 80.6841 20.3522 79.0804 19.609H79.0726L79.0716 19.611ZM88.0919 15.7599C88.866 15.4273 89.4903 14.8209 89.8452 14.0568C90.2134 13.2791 90.4053 12.2612 90.4053 11.0001C90.4053 9.73908 90.2213 8.72019 89.8452 7.94347C89.4905 7.17898 88.8662 6.57222 88.0919 6.23942C87.2896 5.8801 86.2461 5.69699 84.9516 5.69699C83.6571 5.69699 82.6136 5.8801 81.8201 6.23942C81.0514 6.57717 80.4312 7.18228 80.0747 7.94249C79.7065 8.72019 79.5146 9.73908 79.5146 11.0001C79.5146 12.2602 79.7065 13.2545 80.0826 14.0322C80.4586 14.8079 81.0434 15.3759 81.8368 15.752C82.6293 16.1192 83.6659 16.3112 84.9427 16.3112C86.2205 16.3112 87.2896 16.128 88.0831 15.7687L88.0919 15.7599ZM53.2853 1.5289H53.2775L53.2853 1.52103V1.5289ZM53.2853 1.5289H65.4785C66.8065 1.5289 67.9672 1.74548 68.9536 2.17174C69.938 2.598 70.6901 3.21622 71.2158 4.02641C71.7425 4.8366 72.0014 5.79642 72.0014 6.90785C72.0014 7.71804 71.8675 8.41895 71.5997 9.0293C71.3462 9.62068 70.9292 10.1275 70.3977 10.4902C69.8632 10.8574 69.2204 11.1084 68.4683 11.2256V11.5012C69.3286 11.6843 70.0049 11.96 70.4981 12.3193C70.9904 12.6786 71.3576 13.1797 71.583 13.8058C71.8094 14.4319 71.9256 15.2509 71.9256 16.2442C71.9256 17.2385 71.9423 17.9729 71.9758 18.4907C72.0093 19.0085 72.0929 19.6691 72.2268 20.4625H67.2741C67.1609 19.9028 67.0853 19.3361 67.0477 18.7663C67.0082 17.918 66.9918 17.0688 66.9985 16.2196C66.9985 15.627 66.9148 15.1584 66.7484 14.8079C66.5876 14.4588 66.2969 14.1862 65.9383 14.0479C65.5701 13.8983 65.0611 13.8225 64.4262 13.8225H58.238V20.4625H53.2853V1.52792V1.5289ZM58.237 9.85524H64.2509C64.8613 9.85524 65.3368 9.78042 65.704 9.63866C66.0633 9.49691 66.3301 9.26261 66.4974 8.94562C66.6648 8.62765 66.7484 8.19352 66.7484 7.65897C66.7484 7.12442 66.6648 6.69029 66.4974 6.3733C66.3269 6.05276 66.0445 5.8061 65.704 5.68026C65.3446 5.53752 64.8603 5.4627 64.2509 5.4627H58.238L58.237 9.85524ZM44.5908 1.5289H49.6941V20.4694H44.5889V1.52989L44.5908 1.5289ZM29.1155 1.5289H34.8873L42.8218 20.4694H37.368L36.1572 17.3133H27.693L26.4349 20.4704H21.1072L29.1155 1.5289ZM32.1643 6.90686L34.6825 13.472H29.2238L31.8385 6.90686H32.1643ZM104.016 1.5289H98.203V20.4694H103.131V8.24372H103.456L111.132 20.4704H116.944V1.52989H112.017V13.6817H111.691L104.016 1.5289ZM121.745 16.3486H122.964V19.8226H125.494V20.875H121.745V16.3486ZM129.803 16.3486H128.426L126.513 20.875H127.782L128.083 20.1229H130.109L130.397 20.875H131.699L129.803 16.3486ZM129.755 19.2044L129.153 17.6342H129.077L128.45 19.2044H129.755ZM132.728 16.3486H135.442C135.794 16.3486 136.077 16.3899 136.311 16.4736C136.545 16.5573 136.72 16.6823 136.846 16.8408C136.962 17.0081 137.021 17.208 137.021 17.4511C137.021 17.709 136.962 17.9187 136.837 18.0851C136.711 18.2545 136.526 18.3707 136.319 18.4109V18.4779C136.612 18.537 136.837 18.6531 136.988 18.8372C137.137 19.0213 137.213 19.2713 137.213 19.5716C137.213 19.8472 137.154 20.0815 137.029 20.2735C136.9 20.4719 136.713 20.6264 136.495 20.7165C136.229 20.8227 135.945 20.8736 135.66 20.8661H132.72V16.3397L132.728 16.3486ZM135.543 18.1274C135.623 18.1019 135.691 18.0485 135.735 17.9768C135.779 17.8919 135.799 17.7967 135.794 17.7012C135.799 17.6057 135.779 17.5105 135.735 17.4255C135.693 17.3522 135.624 17.2982 135.543 17.2749C135.429 17.2386 135.311 17.2219 135.192 17.2257H133.914V18.1609H135.192C135.343 18.1609 135.459 18.1442 135.543 18.1186V18.1274ZM135.71 19.923C135.795 19.8938 135.866 19.8342 135.91 19.7557C135.958 19.6573 135.981 19.5483 135.977 19.4387C135.983 19.3296 135.963 19.2205 135.919 19.1207C135.875 19.0421 135.803 18.9825 135.718 18.9534C135.599 18.9165 135.475 18.8998 135.351 18.9041H133.922V19.9811H135.351C135.509 19.9811 135.634 19.9644 135.727 19.9319L135.71 19.923ZM138.492 20.2479C138.65 20.4743 138.9 20.6495 139.243 20.7667V20.7746C139.586 20.8917 140.029 20.9498 140.538 20.9498C141.048 20.9498 141.482 20.8907 141.815 20.7824C142.158 20.6742 142.409 20.5068 142.575 20.2902C142.743 20.0737 142.826 19.798 142.826 19.4633C142.826 19.2133 142.784 19.0046 142.693 18.8205C142.602 18.6382 142.46 18.487 142.283 18.3863C142.1 18.2692 141.866 18.1944 141.59 18.1442L140.413 17.9433C140.269 17.9173 140.127 17.8838 139.986 17.8429C139.903 17.8219 139.826 17.7821 139.761 17.7268C139.719 17.6812 139.695 17.6216 139.694 17.5594C139.694 17.4846 139.727 17.4177 139.794 17.3586C139.882 17.2993 139.982 17.2597 140.087 17.2424C140.244 17.2129 140.403 17.1987 140.563 17.2001C140.727 17.1985 140.889 17.2184 141.048 17.2592C141.173 17.2926 141.264 17.3507 141.323 17.4344C141.39 17.5269 141.428 17.6373 141.431 17.7514H142.659C142.668 17.4344 142.592 17.1666 142.434 16.95C142.275 16.7335 142.041 16.5661 141.724 16.4578C141.407 16.3486 141.005 16.2905 140.546 16.2905C140.087 16.2905 139.711 16.3397 139.394 16.448C139.077 16.5573 138.842 16.7079 138.684 16.9166C138.517 17.1164 138.442 17.3753 138.442 17.6766C138.442 17.902 138.483 18.094 138.576 18.2613C138.667 18.4287 138.801 18.5616 138.984 18.6699C139.168 18.7781 139.394 18.8618 139.677 18.9209L140.997 19.1877C141.148 19.2211 141.264 19.2546 141.348 19.2881C141.417 19.3112 141.478 19.3548 141.523 19.4131C141.564 19.4813 141.58 19.5615 141.57 19.6403C141.559 19.7192 141.522 19.7921 141.465 19.8472C141.374 19.9271 141.26 19.9769 141.139 19.99C140.949 20.0197 140.756 20.0335 140.563 20.0313C140.321 20.0313 140.129 20.0146 139.986 19.9723C139.862 19.9428 139.752 19.869 139.677 19.7645C139.602 19.6407 139.559 19.4999 139.552 19.355H138.258C138.25 19.7143 138.333 20.0234 138.492 20.2489V20.2479Z" fill="white"/>
<path fill-rule="evenodd" clip-rule="evenodd" d="M14.7112 1.47763L18.1626 4.39647L10.8877 12.9994L10.8808 12.9935V12.9985H5.93302V20.4142H0.828735V1.52291H5.93302V8.47695H8.79083L14.7112 1.47763ZM13.8242 20.424H18.3448V12.9994H13.8252L13.8242 20.424Z" fill="white"/>
</g>
<defs>
<clipPath id="clip0_168_146">
<rect width="142.743" height="20.6731" fill="white" transform="translate(0.259766 0.660645)"/>
</clipPath>
</defs>
</svg>
