<svg width="38" height="37" viewBox="0 0 38 37" fill="none" xmlns="http://www.w3.org/2000/svg">
<circle cx="18.6366" cy="18.5858" r="18.3888" fill="white"/>
<path d="M13.7 8.27437C13.3742 8.2241 13.3603 8.2189 13.5146 8.19637C13.8092 8.1513 14.5026 8.21197 14.981 8.32464C16.0972 8.5881 17.113 9.2641 18.198 10.4653L18.4858 10.7842L18.8983 10.7184C20.6351 10.441 22.3996 10.6612 23.8782 11.3389C24.2855 11.5261 24.9268 11.897 25.0048 11.9924C25.0326 12.0236 25.0794 12.2177 25.1088 12.4274C25.2198 13.152 25.166 13.7049 24.9424 14.1192C24.8211 14.3445 24.8142 14.4156 24.8956 14.6097C24.9346 14.6897 24.9952 14.7571 25.0706 14.8043C25.146 14.8515 25.2331 14.8765 25.322 14.8766C25.6895 14.8766 26.0847 14.2873 26.2667 13.4657L26.3395 13.1381L26.4834 13.301C27.2755 14.192 27.896 15.4053 28.0018 16.2685L28.0295 16.4938L27.8978 16.2893C27.7063 15.976 27.449 15.7081 27.1438 15.5041C26.6134 15.1557 26.0518 15.0361 24.568 14.9581C23.2264 14.8888 22.4672 14.7744 21.715 14.53C20.434 14.114 19.7892 13.5628 18.2674 11.5798C17.5914 10.6976 17.1754 10.2105 16.7594 9.81877C15.8147 8.9261 14.8874 8.4581 13.7 8.2761V8.27437Z" fill="#DA569F"/>
<path d="M25.3098 10.2418C25.3427 9.6525 25.4225 9.2625 25.5854 8.90717C25.6211 8.81737 25.6658 8.73142 25.7189 8.65063C25.7275 8.65063 25.6998 8.75463 25.6565 8.88117C25.5386 9.22783 25.5178 9.6993 25.601 10.2488C25.705 10.9456 25.7622 11.0461 26.5023 11.7984C26.8507 12.152 27.2546 12.5957 27.4019 12.7881L27.6689 13.1348L27.4019 12.8869C27.0761 12.5836 26.3273 11.9908 26.1609 11.9058C26.0499 11.8504 26.0326 11.8504 25.965 11.918C25.9009 11.9804 25.8887 12.074 25.8783 12.5177C25.8662 13.2093 25.7709 13.653 25.5421 14.095C25.419 14.3377 25.3999 14.2857 25.5109 14.0136C25.5941 13.8125 25.6027 13.7224 25.6027 13.0533C25.6027 11.71 25.4398 11.3858 24.4986 10.8346C24.2147 10.6707 23.9232 10.5203 23.625 10.384C23.4781 10.3249 23.3356 10.2554 23.1986 10.176C23.2246 10.15 24.1433 10.4169 24.5125 10.5573C25.0637 10.7688 25.1538 10.7948 25.2214 10.7705C25.2647 10.7532 25.2873 10.6232 25.3081 10.2418H25.3098ZM14.3326 12.542C13.6722 11.6372 13.2614 10.2488 13.3515 9.2105L13.3775 8.88983L13.5283 8.91583C13.8126 8.96783 14.2997 9.1481 14.5285 9.28677C15.1542 9.66463 15.4263 10.1621 15.7019 11.4413C15.7834 11.8157 15.8891 12.2386 15.9377 12.3842C16.0157 12.6148 16.3138 13.1538 16.5547 13.504C16.7281 13.757 16.6137 13.8766 16.2289 13.842C15.6413 13.79 14.8457 13.244 14.3326 12.542ZM24.5055 19.2794C21.4133 18.0436 20.3247 16.9689 20.3247 15.1576C20.3247 14.8906 20.3334 14.6722 20.3455 14.6722C20.3559 14.6722 20.4755 14.7589 20.6107 14.8681C21.2382 15.3673 21.9402 15.5805 23.885 15.863C25.029 16.0294 25.6703 16.1629 26.2649 16.3588C28.1542 16.981 29.3207 18.2429 29.5998 19.9641C29.6795 20.4633 29.6345 21.3993 29.501 21.8933C29.397 22.2833 29.0815 22.9853 28.9983 23.013C28.9741 23.0217 28.9515 22.9333 28.9463 22.812C28.9151 22.1672 28.5858 21.538 28.0346 21.0665C27.4071 20.5309 26.5647 20.1028 24.5055 19.2794ZM22.3354 19.7942C22.2991 19.5747 22.2493 19.3576 22.1863 19.1442L22.1066 18.9102L22.2539 19.0749C22.4567 19.3002 22.6179 19.5897 22.7531 19.9762C22.8571 20.2709 22.8675 20.3576 22.8675 20.836C22.8675 21.3057 22.8537 21.4045 22.7566 21.668C22.6234 22.0587 22.4001 22.4126 22.1049 22.701C21.5398 23.273 20.8135 23.5885 19.7649 23.7202C19.5829 23.7428 19.0525 23.7809 18.5862 23.8052C17.4093 23.8658 16.6345 23.9924 15.9394 24.235C15.8764 24.2627 15.8088 24.2786 15.7401 24.2818C15.7123 24.2541 16.1873 23.9733 16.5773 23.7861C17.1285 23.5209 17.6779 23.377 18.9086 23.1742C19.5153 23.0737 20.1445 22.9506 20.3039 22.9021C21.8085 22.4445 22.5833 21.2606 22.3354 19.7942Z" fill="#DA569F"/>
<path d="M23.7534 22.297C23.3426 21.42 23.2472 20.5724 23.4726 19.782C23.4968 19.6953 23.535 19.6277 23.5592 19.6277C23.5818 19.6277 23.6806 19.6797 23.7742 19.7438C23.9648 19.8704 24.3427 20.0836 25.355 20.6313C26.6168 21.316 27.3379 21.8446 27.8267 22.4513C28.2548 22.98 28.52 23.5849 28.6483 24.3198C28.7211 24.7358 28.6778 25.7412 28.5703 26.1606C28.2306 27.4849 27.4436 28.5249 26.317 29.1316C26.1523 29.22 26.005 29.2928 25.9876 29.2928C25.972 29.2928 26.0327 29.142 26.1211 28.9565C26.5007 28.1696 26.544 27.4052 26.258 26.5541C26.0812 26.0324 25.7242 25.3962 25.0031 24.3198C24.1642 23.0718 23.9596 22.7373 23.7534 22.297ZM12.1366 27.0342C13.2858 26.0705 14.7123 25.3876 16.014 25.1761C16.6845 25.0901 17.3646 25.1165 18.0264 25.2541C18.8584 25.4656 19.6038 25.9405 19.9903 26.5038C20.3682 27.0568 20.5311 27.5369 20.701 28.6081C20.7668 29.0293 20.8396 29.454 20.8604 29.5493C20.987 30.104 21.2348 30.5477 21.5399 30.7696C22.0252 31.1232 22.8642 31.1457 23.6875 30.8268C23.773 30.7873 23.8633 30.7594 23.9562 30.7436C23.9856 30.773 23.5714 31.0486 23.2802 31.1942C22.9347 31.3779 22.5482 31.471 22.157 31.4646C21.403 31.4646 20.7772 31.0833 20.2538 30.3068C20.0618 29.978 19.8904 29.6376 19.7407 29.2876C19.1895 28.0378 18.9174 27.6582 18.2778 27.2405C17.7196 26.8765 17.0003 26.8124 16.4595 27.0758C15.7488 27.4225 15.5512 28.3238 16.0608 28.8958C16.2989 29.1416 16.6103 29.3034 16.9483 29.3569C17.0825 29.3753 17.2192 29.3646 17.3489 29.3255C17.4786 29.2865 17.5984 29.22 17.7002 29.1306C17.802 29.0411 17.8833 28.9308 17.9387 28.8072C17.9941 28.6835 18.0222 28.5494 18.0212 28.414C18.0212 28.0378 17.8756 27.8246 17.5099 27.6582C17.009 27.4346 16.4734 27.6964 16.4751 28.1626C16.4751 28.362 16.5635 28.4868 16.7646 28.5786C16.8928 28.6358 16.8963 28.6393 16.7906 28.6185C16.333 28.5232 16.2255 27.9737 16.593 27.6097C17.0367 27.1729 17.9519 27.3653 18.2656 27.9633C18.3974 28.2146 18.413 28.7138 18.2986 29.0154C18.0386 29.6914 17.2898 30.0468 16.5271 29.8526C16.0071 29.7209 15.7974 29.5788 15.1716 28.9392C14.0848 27.8264 13.6636 27.6097 12.0967 27.367L11.7951 27.3202L12.1366 27.0342Z" fill="#DA569F"/>
<path fill-rule="evenodd" clip-rule="evenodd" d="M7.03715 7.11824C10.6667 11.4966 13.1679 13.3028 13.4453 13.6841C13.6741 13.9996 13.5874 14.2838 13.1957 14.5057C12.9171 14.6457 12.6139 14.7299 12.303 14.7536C12.0482 14.7536 11.9598 14.6565 11.9598 14.6565C11.8125 14.5178 11.7293 14.5421 10.9718 13.2057C10.3278 12.2034 9.67607 11.2061 9.01661 10.214C8.96115 10.162 8.96288 10.162 10.8661 13.5472C11.1729 14.2526 10.9267 14.5109 10.9267 14.6114C10.9267 14.816 10.8695 14.9234 10.6165 15.206C10.1935 15.674 10.0046 16.2009 9.86768 17.2912C9.71515 18.5132 9.28528 19.3764 8.09275 20.8549C7.39595 21.7198 7.28155 21.8776 7.10475 22.2277C6.88288 22.6662 6.82221 22.9124 6.79795 23.4653C6.77195 24.0529 6.82221 24.4308 7.00248 24.9906C7.15848 25.4829 7.32488 25.8053 7.74608 26.4536C8.11008 27.0134 8.31808 27.4294 8.31808 27.5924C8.31808 27.7206 8.34235 27.7206 8.90741 27.5941C10.2525 27.2925 11.3462 26.7621 11.9615 26.1086C12.3429 25.7048 12.4313 25.4829 12.4347 24.93C12.4365 24.5694 12.4243 24.4932 12.3255 24.2852C12.1661 23.9472 11.8749 23.6646 11.2335 23.2278C10.3911 22.6558 10.0306 22.1965 9.93355 21.5638C9.85035 21.0438 9.94568 20.6781 10.4102 19.7092C10.8921 18.7038 11.0117 18.2757 11.0931 17.2652C11.1451 16.6117 11.2162 16.3534 11.4051 16.1454C11.6027 15.9305 11.7795 15.8577 12.2683 15.7918C13.0639 15.6826 13.5683 15.4798 13.9843 15.0985C14.1511 14.9609 14.2856 14.7883 14.3785 14.5931C14.4713 14.3978 14.5202 14.1846 14.5217 13.9684L14.539 13.6044L14.3362 13.3721C13.6065 12.5262 6.54835 6.45264 6.50328 6.45264C6.49461 6.45264 6.73381 6.7525 7.03715 7.11824ZM8.72888 24.1309C8.8084 23.9905 8.83205 23.8252 8.7951 23.6681C8.75815 23.511 8.66333 23.3736 8.52955 23.2833C8.26955 23.11 7.86221 23.1932 7.86221 23.4168C7.86221 23.4861 7.90035 23.5364 7.98701 23.5797C8.13261 23.6542 8.14301 23.7374 8.02861 23.909C7.91248 24.0806 7.92288 24.2314 8.05461 24.3354C8.26781 24.5001 8.56941 24.41 8.72888 24.1309ZM15.0399 15.9842C14.6673 16.0969 14.305 16.4904 14.1906 16.9029C14.123 17.1542 14.1629 17.5962 14.2651 17.7314C14.4315 17.9516 14.591 18.0088 15.0261 18.007C15.8754 18.0018 16.6138 17.6396 16.7005 17.1854C16.7698 16.8145 16.4457 16.3014 15.9985 16.0744C15.6947 15.951 15.3614 15.9197 15.0399 15.9842ZM16.0349 16.7556C16.1649 16.5701 16.1077 16.3708 15.8841 16.2356C15.4611 15.9773 14.8181 16.1905 14.8181 16.5892C14.8181 16.7885 15.1526 17.0052 15.4594 17.0052C15.6639 17.0052 15.9447 16.8838 16.0349 16.7556Z" fill="#DA569F"/>
</svg>
