<svg width="95" height="93" viewBox="0 0 95 93" fill="none" xmlns="http://www.w3.org/2000/svg">
<g filter="url(#filter0_d_1_116)">
<rect x="9.21664" y="0.202881" width="76.2167" height="73.5426" rx="6.83519" fill="#4D69B1"/>
<rect x="10.071" y="1.05728" width="74.5079" height="71.8338" rx="5.98079" stroke="white" stroke-width="1.7088"/>
</g>
<path fill-rule="evenodd" clip-rule="evenodd" d="M54.3788 47.6523C54.7338 47.9036 55.1913 47.9664 55.5991 47.8121C56.007 47.6567 56.3068 47.3083 56.3972 46.8861C57.3552 42.3841 59.6789 30.9891 60.5509 26.8938C60.617 26.5852 60.5068 26.2644 60.2643 26.0582C60.0218 25.8521 59.6856 25.7926 59.3857 25.9039C54.7635 27.6148 40.5288 32.9557 34.7106 35.1086C34.3414 35.2453 34.101 35.6002 34.1132 35.9893C34.1264 36.3796 34.3888 36.718 34.7669 36.8315C37.3761 37.612 40.8011 38.6978 40.8011 38.6978C40.8011 38.6978 42.4017 43.5317 43.2362 45.9899C43.3409 46.2986 43.5824 46.5411 43.9009 46.6249C44.2184 46.7075 44.5579 46.6204 44.795 46.3967C46.1354 45.1312 48.2078 43.1745 48.2078 43.1745C48.2078 43.1745 52.1454 46.0616 54.3788 47.6523ZM42.2419 38.0871L44.0927 44.192L44.5039 40.326C44.5039 40.326 51.6549 33.8761 55.7314 30.1998C55.8505 30.0918 55.867 29.911 55.7678 29.7842C55.6697 29.6574 55.4889 29.6277 55.3533 29.7136C50.6286 32.7308 42.2419 38.0871 42.2419 38.0871Z" fill="white"/>
<path d="M18.7453 26.0555C18.7453 15.905 26.9739 7.67647 37.1245 7.67647H57.5601C67.7106 7.67647 75.9392 15.905 75.9392 26.0555V26.0775V26.0995V26.1215V26.1435V26.1655V26.1875V26.2095V26.2315V26.2535V26.2755V26.2975V26.3195V26.3415V26.3635V26.3855V26.4075V26.4295V26.4516V26.4736V26.4956V26.5176V26.5396V26.5616V26.5836V26.6056V26.6276V26.6496V26.6716V26.6937V26.7157V26.7377V26.7597V26.7817V26.8037V26.8257V26.8477V26.8698V26.8918V26.9138V26.9358V26.9578V26.9798V27.0018V27.0238V27.0458V27.0678V27.0899V27.1119V27.1339V27.1559V27.1779V27.1999V27.2219V27.2439V27.2659V27.2879V27.3099V27.3319V27.3539V27.3759V27.3979V27.4199V27.4419V27.4639V27.4859V27.5079V27.5299V27.5519V27.5739V27.5959V27.6179V27.6399V27.6619V27.6839V27.7059V27.7279V27.7499V27.7719V27.7938V27.8158V27.8378V27.8598V27.8818V27.9037V27.9257V27.9477V27.9697V27.9917V28.0136V28.0356V28.0576V28.0795V28.1015V28.1235V28.1454V28.1674V28.1894V28.2113V28.2333V28.2552V28.2772V28.2992V28.3211V28.3431V28.365V28.387V28.4089V28.4308V28.4528V28.4747V28.4967V28.5186V28.5405V28.5625V28.5844V28.6063V28.6282V28.6502V28.6721V28.694V28.7159V28.7378V28.7598V28.7817V28.8036V28.8255V28.8474V28.8693V28.8912V28.9131V28.935V28.9569V28.9788V29.0007V29.0225V29.0444V29.0663V29.0882V29.1101V29.1319V29.1538V29.1757V29.1975V29.2194V29.2412V29.2631V29.285V29.3068V29.3286V29.3505V29.3723V29.3942V29.416V29.4378V29.4597V29.4815V29.5033V29.5251V29.547V29.5688V29.5906V29.6124V29.6342V29.656V29.6778V29.6996V29.7214V29.7432V29.765V29.7867V29.8085V29.8303V29.8521V29.8738V29.8956V29.9174V29.9391V29.9609V29.9826V30.0044V30.0261V30.0479V30.0696V30.0913V30.113V30.1348V30.1565V30.1782V30.1999V30.2216V30.2433V30.265V30.2867V30.3084V30.3301V30.3518V30.3735V30.3952V30.4168V30.4385V30.4602V30.4818V30.5035V30.5251V30.5468V30.5684V30.5901V30.6117V30.6333V30.655V30.6766V30.6982V30.7198V30.7414V30.763V30.7846V30.8062V30.8278V30.8494V30.871V30.8926V30.9142V30.9357V30.9573V30.9788V31.0004V31.0219V31.0435V31.065V31.0866V31.1081V31.1296V31.1511V31.1727V31.1942V31.2157V31.2372V31.2587V31.2802V31.3016V31.3231V31.3446V31.3661V31.3875V31.409V31.4304V31.4519V31.4733V31.4948V31.5162V31.5376V31.5591V31.5805V31.6019V31.6233V31.6447V31.6661V31.6875V31.7089V31.7302V31.7516V31.773V31.7943V31.8157V31.837V31.8584V31.8797V31.901V31.9224V31.9437V31.965V31.9863V32.0076V32.0289V32.0502V32.0715V32.0928V32.114V32.1353V32.1566V32.1778V32.1991V32.2203V32.2415V32.2628V32.284V32.3052V32.3264V32.3476V32.3688V32.39V32.4112V32.4324V32.4536V32.4747V32.4959V32.517V32.5382V32.5593V32.5805V32.6016V32.6227V32.6438V32.6649V32.686V32.7071V32.7282V32.7493V32.7704V32.7914V32.8125V32.8335V32.8546V32.8756V32.8967V32.9177V32.9387V32.9597V32.9807V33.0017V33.0227V33.0437V33.0647V33.0856V33.1066V33.1275V33.1485V33.1694V33.1904V33.2113V33.2322V33.2531V33.274V33.2949V33.3158V33.3367V33.3575V33.3784V33.3993V33.4201V33.441V33.4618V33.4826V33.5034V33.5243V33.5451V33.5658V33.5866V33.6074V33.6282V33.649V33.6697V33.6905V33.7112V33.7319V33.7527V33.7734V33.7941V33.8148V33.8355V33.8562V33.8768V33.8975V33.9182V33.9388V33.9595V33.9801V34.0007V34.0213V34.042V34.0626V34.0832V34.1037V34.1243V34.1449V34.1654V34.186V34.2065V34.2271V34.2476V34.2681V34.2886V34.3091V34.3296V34.3501V34.3706V34.391V34.4115V34.4319V34.4524V34.4728V34.4932V34.5136V34.5341V34.5544V34.5748V34.5952V34.6156V34.6359V34.6563V34.6766V34.697V34.7173V34.7376V34.7579V34.7782V34.7985V34.8187V34.839V34.8593V34.8795V34.8998V34.92V34.9402V34.9604V34.9806V35.0008V35.021V35.0412V35.0613V35.0815V35.1016V35.1218V35.1419V35.162V35.1821V35.2022V35.2223V35.2424V35.2624V35.2825V35.3025V35.3226V35.3426V35.3626V35.3826V35.4026V35.4226V35.4426V35.4625V35.4825V35.5024V35.5224V35.5423V35.5622V35.5821V35.602V35.6219V35.6418V35.6616V35.6815V35.7013V35.7212V35.741V35.7608V35.7806V35.8004V35.8202V35.84V35.8597V35.8795V35.8992V35.9189V35.9386V35.9583V35.978V35.9977V36.0174V36.0371V36.0567V36.0764V36.096V36.1156V36.1352V36.1548V36.1744V36.194V36.2136V36.2331V36.2527V36.2722V36.2917V36.3112V36.3307V36.3502V36.3697V36.3891V36.4086V36.428V36.4475V36.4669V36.4863V36.5057V36.5251V36.5445V36.5638V36.5832V36.6025V36.6218V36.6412V36.6605V36.6798V36.699V36.7183V36.7376V36.7568V36.7761V36.7953V36.8145V36.8337V36.8529V36.8721V36.8912V36.9104V36.9296V36.9488V36.9681V36.9873V37.0065V37.0258V37.0451V37.0643V37.0836V37.1029V37.1223V37.1416V37.1609V37.1803V37.1996V37.219V37.2384V37.2578V37.2772V37.2966V37.3161V37.3355V37.355V37.3744V37.3939V37.4134V37.4329V37.4524V37.4719V37.4915V37.511V37.5306V37.5501V37.5697V37.5893V37.6089V37.6285V37.6481V37.6677V37.6874V37.707V37.7267V37.7464V37.7661V37.7858V37.8055V37.8252V37.8449V37.8646V37.8844V37.9042V37.9239V37.9437V37.9635V37.9833V38.0031V38.0229V38.0428V38.0626V38.0825V38.1023V38.1222V38.1421V38.162V38.1819V38.2018V38.2217V38.2417V38.2616V38.2816V38.3015V38.3215V38.3415V38.3615V38.3815V38.4015V38.4215V38.4416V38.4616V38.4817V38.5017V38.5218V38.5419V38.562V38.5821V38.6022V38.6223V38.6425V38.6626V38.6828V38.7029V38.7231V38.7433V38.7635V38.7837V38.8039V38.8241V38.8443V38.8646V38.8848V38.9051V38.9254V38.9456V38.9659V38.9862V39.0065V39.0268V39.0472V39.0675V39.0878V39.1082V39.1285V39.1489V39.1693V39.1897V39.2101V39.2305V39.2509V39.2713V39.2917V39.3122V39.3326V39.3531V39.3735V39.394V39.4145V39.435V39.4555V39.476V39.4965V39.517V39.5376V39.5581V39.5787V39.5992V39.6198V39.6404V39.661V39.6815V39.7021V39.7228V39.7434V39.764V39.7846V39.8053V39.8259V39.8466V39.8673V39.8879V39.9086V39.9293V39.95V39.9707V39.9914V40.0122V40.0329V40.0536V40.0744V40.0952V40.1159V40.1367V40.1575V40.1783V40.1991V40.2199V40.2407V40.2615V40.2823V40.3032V40.324V40.3448V40.3657V40.3866V40.4074V40.4283V40.4492V40.4701V40.491V40.5119V40.5328V40.5537V40.5747V40.5956V40.6166V40.6375V40.6585V40.6794V40.7004V40.7214V40.7424V40.7634V40.7844V40.8054V40.8264V40.8475V40.8685V40.8895V40.9106V40.9316V40.9527V40.9737V40.9948V41.0159V41.037V41.0581V41.0792V41.1003V41.1214V41.1425V41.1636V41.1848V41.2059V41.2271V41.2482V41.2694V41.2905V41.3117V41.3329V41.3541V41.3753V41.3965V41.4177V41.4389V41.4601V41.4813V41.5026V41.5238V41.545V41.5663V41.5875V41.6088V41.6301V41.6513V41.6726V41.6939V41.7152V41.7365V41.7578V41.7791V41.8004V41.8217V41.8431V41.8644V41.8857V41.9071V41.9284V41.9498V41.9711V41.9925V42.0139V42.0353V42.0566V42.078V42.0994V42.1208V42.1422V42.1636V42.1851V42.2065V42.2279V42.2493V42.2708V42.2922V42.3137V42.3351V42.3566V42.378V42.3995V42.421V42.4425V42.464V42.4854V42.5069V42.5284V42.5499V42.5715V42.593V42.6145V42.636V42.6575V42.6791V42.7006V42.7222V42.7437V42.7653V42.7868V42.8084V42.83V42.8515V42.8731V42.8947V42.9163V42.9379V42.9595V42.9811V43.0027V43.0243V43.0459V43.0675V43.0891V43.1108V43.1324V43.154V43.1757V43.1973V43.219V43.2406V43.2623V43.2839V43.3056V43.3273V43.3489V43.3706V43.3923V43.414V43.4357V43.4574V43.4791V43.5008V43.5225V43.5442V43.5659V43.5876V43.6093V43.6311V43.6528V43.6745V43.6963V43.718V43.7397V43.7615V43.7832V43.805V43.8267V43.8485V43.8703V43.892V43.9138V43.9356V43.9574V43.9791V44.0009V44.0227V44.0445V44.0663V44.0881V44.1099V44.1317V44.1535V44.1753V44.1972V44.219V44.2408V44.2626V44.2844V44.3063V44.3281V44.3499V44.3718V44.3936V44.4155V44.4373V44.4592V44.481V44.5029V44.5247V44.5466V44.5685V44.5903V44.6122V44.6341V44.6559V44.6778V44.6997V44.7216V44.7435V44.7653V44.7872V44.8091V44.831V44.8529V44.8748V44.8967V44.9186V44.9405V44.9624V44.9843V45.0063V45.0282V45.0501V45.072V45.0939V45.1159V45.1378V45.1597V45.1816V45.2036V45.2255V45.2474V45.2694V45.2913V45.3133V45.3352V45.3572V45.3791V45.4011V45.423V45.445V45.4669V45.4889V45.5108V45.5328V45.5547V45.5767V45.5987V45.6206V45.6426V45.6646V45.6865V45.7085V45.7305V45.7524V45.7744V45.7964V45.8184V45.8404V45.8623V45.8843V45.9063V45.9283V45.9503V45.9723V45.9942V46.0162V46.0382V46.0602V46.0822V46.1042V46.1262V46.1482V46.1702V46.1922V46.2142V46.2362V46.2582V46.2802V46.3022V46.3242V46.3462V46.3682V46.3902V46.4122V46.4342V46.4562V46.4782V46.5002V46.5222V46.5442V46.5662V46.5882V46.6102V46.6322V46.6543V46.6763V46.6983V46.7203V46.7423V46.7643V46.7863V46.8083V46.8303V46.8523V46.8744V46.8964V46.9184V46.9404V46.9624V46.9844V47.0064V47.0284V47.0504V47.0725V47.0945V47.1165V47.1385V47.1605V47.1825V47.2045V47.2265V47.2485V47.2705V47.2926V47.3146V47.3366V47.3586V47.3806V47.4026V47.4246V47.4466V47.4686V47.4906V47.5126V47.5346V47.5566V47.5786V47.6006V47.6226V47.6446V47.6666V47.6886C75.9392 57.8391 67.7106 66.0676 57.5601 66.0676H37.1244C26.9739 66.0676 18.7453 57.8391 18.7453 47.6887L18.7453 36.8721L18.7453 26.0555Z" stroke="white" stroke-width="0.854398"/>
<defs>
<filter id="filter0_d_1_116" x="0.516644" y="0.202881" width="93.6166" height="92.2425" filterUnits="userSpaceOnUse" color-interpolation-filters="sRGB">
<feFlood flood-opacity="0" result="BackgroundImageFix"/>
<feColorMatrix in="SourceAlpha" type="matrix" values="0 0 0 0 0 0 0 0 0 0 0 0 0 0 0 0 0 0 127 0" result="hardAlpha"/>
<feOffset dy="10"/>
<feGaussianBlur stdDeviation="4.35"/>
<feComposite in2="hardAlpha" operator="out"/>
<feColorMatrix type="matrix" values="0 0 0 0 0.186285 0 0 0 0 0.294934 0 0 0 0 0.604167 0 0 0 1 0"/>
<feBlend mode="normal" in2="BackgroundImageFix" result="effect1_dropShadow_1_116"/>
<feBlend mode="normal" in="SourceGraphic" in2="effect1_dropShadow_1_116" result="shape"/>
</filter>
</defs>
</svg>
