<svg width="94" height="93" viewBox="0 0 94 93" fill="none" xmlns="http://www.w3.org/2000/svg">
<g filter="url(#filter0_d_1_110)">
<rect x="9" y="0.202881" width="76.2167" height="73.5426" rx="6.83519" fill="#636CBB"/>
<rect x="9.8544" y="1.05728" width="74.5079" height="71.8338" rx="5.98079" stroke="white" stroke-width="1.7088"/>
</g>
<path d="M18.0914 25.957C18.0914 15.6135 26.4765 7.22847 36.82 7.22847H57.6354C67.979 7.22847 76.364 15.6135 76.364 25.957V25.9794V26.0018V26.0242V26.0466V26.069V26.0914V26.1138V26.1362V26.1587V26.1811V26.2035V26.2259V26.2483V26.2707V26.2931V26.3156V26.338V26.3604V26.3828V26.4052V26.4276V26.4501V26.4725V26.4949V26.5173V26.5397V26.5622V26.5846V26.607V26.6294V26.6518V26.6743V26.6967V26.7191V26.7415V26.7639V26.7864V26.8088V26.8312V26.8536V26.876V26.8985V26.9209V26.9433V26.9657V26.9881V27.0106V27.033V27.0554V27.0778V27.1002V27.1226V27.1451V27.1675V27.1899V27.2123V27.2347V27.2571V27.2795V27.302V27.3244V27.3468V27.3692V27.3916V27.414V27.4364V27.4588V27.4812V27.5036V27.526V27.5484V27.5708V27.5932V27.6156V27.638V27.6604V27.6828V27.7052V27.7276V27.75V27.7724V27.7948V27.8172V27.8396V27.862V27.8844V27.9067V27.9291V27.9515V27.9739V27.9963V28.0186V28.041V28.0634V28.0858V28.1081V28.1305V28.1529V28.1752V28.1976V28.22V28.2423V28.2647V28.2871V28.3094V28.3318V28.3541V28.3765V28.3988V28.4212V28.4435V28.4659V28.4882V28.5105V28.5329V28.5552V28.5775V28.5999V28.6222V28.6445V28.6669V28.6892V28.7115V28.7338V28.7561V28.7784V28.8008V28.8231V28.8454V28.8677V28.89V28.9123V28.9346V28.9569V28.9792V29.0014V29.0237V29.046V29.0683V29.0906V29.1129V29.1351V29.1574V29.1797V29.2019V29.2242V29.2465V29.2687V29.291V29.3132V29.3355V29.3577V29.3799V29.4022V29.4244V29.4466V29.4689V29.4911V29.5133V29.5355V29.5578V29.58V29.6022V29.6244V29.6466V29.6688V29.691V29.7132V29.7354V29.7576V29.7797V29.8019V29.8241V29.8463V29.8684V29.8906V29.9128V29.9349V29.9571V29.9792V30.0014V30.0235V30.0457V30.0678V30.0899V30.1121V30.1342V30.1563V30.1784V30.2005V30.2227V30.2448V30.2669V30.289V30.311V30.3331V30.3552V30.3773V30.3994V30.4214V30.4435V30.4656V30.4876V30.5097V30.5317V30.5538V30.5758V30.5979V30.6199V30.6419V30.664V30.686V30.708V30.73V30.752V30.774V30.796V30.818V30.84V30.862V30.884V30.9059V30.9279V30.9499V30.9718V30.9938V31.0157V31.0377V31.0596V31.0815V31.1035V31.1254V31.1473V31.1692V31.1911V31.213V31.2349V31.2568V31.2787V31.3006V31.3225V31.3444V31.3662V31.3881V31.41V31.4318V31.4537V31.4755V31.4973V31.5192V31.541V31.5628V31.5846V31.6064V31.6282V31.65V31.6718V31.6936V31.7154V31.7372V31.7589V31.7807V31.8025V31.8242V31.846V31.8677V31.8894V31.9112V31.9329V31.9546V31.9763V31.998V32.0197V32.0414V32.0631V32.0848V32.1064V32.1281V32.1498V32.1714V32.1931V32.2147V32.2364V32.258V32.2796V32.3012V32.3228V32.3445V32.3661V32.3876V32.4092V32.4308V32.4524V32.4739V32.4955V32.5171V32.5386V32.5601V32.5817V32.6032V32.6247V32.6462V32.6677V32.6892V32.7107V32.7322V32.7537V32.7752V32.7966V32.8181V32.8395V32.861V32.8824V32.9039V32.9253V32.9467V32.9681V32.9895V33.0109V33.0323V33.0537V33.075V33.0964V33.1178V33.1391V33.1604V33.1818V33.2031V33.2244V33.2457V33.2671V33.2884V33.3096V33.3309V33.3522V33.3735V33.3947V33.416V33.4372V33.4585V33.4797V33.5009V33.5221V33.5433V33.5645V33.5857V33.6069V33.6281V33.6492V33.6704V33.6916V33.7127V33.7338V33.755V33.7761V33.7972V33.8183V33.8394V33.8605V33.8815V33.9026V33.9237V33.9447V33.9658V33.9868V34.0078V34.0289V34.0499V34.0709V34.0919V34.1128V34.1338V34.1548V34.1758V34.1967V34.2176V34.2386V34.2595V34.2804V34.3013V34.3222V34.3431V34.364V34.3849V34.4057V34.4266V34.4474V34.4683V34.4891V34.5099V34.5307V34.5515V34.5723V34.5931V34.6139V34.6346V34.6554V34.6761V34.6969V34.7176V34.7383V34.759V34.7797V34.8004V34.8211V34.8418V34.8624V34.8831V34.9037V34.9244V34.945V34.9656V34.9862V35.0068V35.0274V35.048V35.0685V35.0891V35.1096V35.1302V35.1507V35.1712V35.1917V35.2122V35.2327V35.2532V35.2737V35.2941V35.3146V35.335V35.3554V35.3759V35.3963V35.4167V35.4371V35.4574V35.4778V35.4982V35.5185V35.5388V35.5592V35.5795V35.5998V35.6201V35.6404V35.6606V35.6809V35.7012V35.7214V35.7416V35.7619V35.7821V35.8023V35.8225V35.8427V35.8628V35.883V35.9031V35.9233V35.9434V35.9635V35.9836V36.0037V36.0238V36.0439V36.0639V36.084V36.104V36.1241V36.1441V36.1641V36.1841V36.2041V36.224V36.244V36.2639V36.2839V36.3038V36.3237V36.3436V36.3635V36.3834V36.4033V36.4231V36.443V36.4628V36.4827V36.5025V36.5223V36.5421V36.5619V36.5816V36.6014V36.6211V36.6409V36.6606V36.6803V36.7V36.7197V36.7394V36.759V36.7787V36.7983V36.818V36.8376V36.8572V36.8768V36.8963V36.9159V36.9355V36.955V36.9746V36.9941V37.0136V37.0332V37.0528V37.0723V37.0919V37.1115V37.1311V37.1508V37.1704V37.1901V37.2097V37.2294V37.2491V37.2688V37.2885V37.3082V37.328V37.3477V37.3675V37.3872V37.407V37.4268V37.4466V37.4664V37.4863V37.5061V37.526V37.5458V37.5657V37.5856V37.6055V37.6254V37.6453V37.6652V37.6852V37.7051V37.7251V37.745V37.765V37.785V37.805V37.8251V37.8451V37.8651V37.8852V37.9052V37.9253V37.9454V37.9655V37.9856V38.0057V38.0258V38.046V38.0661V38.0863V38.1064V38.1266V38.1468V38.167V38.1872V38.2075V38.2277V38.2479V38.2682V38.2885V38.3087V38.329V38.3493V38.3696V38.3899V38.4103V38.4306V38.4509V38.4713V38.4917V38.512V38.5324V38.5528V38.5732V38.5937V38.6141V38.6345V38.655V38.6754V38.6959V38.7164V38.7369V38.7574V38.7779V38.7984V38.8189V38.8395V38.86V38.8806V38.9011V38.9217V38.9423V38.9629V38.9835V39.0041V39.0247V39.0454V39.066V39.0867V39.1073V39.128V39.1487V39.1694V39.1901V39.2108V39.2315V39.2522V39.273V39.2937V39.3145V39.3352V39.356V39.3768V39.3976V39.4184V39.4392V39.46V39.4808V39.5017V39.5225V39.5434V39.5642V39.5851V39.606V39.6269V39.6478V39.6687V39.6896V39.7105V39.7315V39.7524V39.7733V39.7943V39.8153V39.8363V39.8572V39.8782V39.8992V39.9202V39.9413V39.9623V39.9833V40.0044V40.0254V40.0465V40.0676V40.0886V40.1097V40.1308V40.1519V40.173V40.1941V40.2153V40.2364V40.2575V40.2787V40.2999V40.321V40.3422V40.3634V40.3846V40.4058V40.427V40.4482V40.4694V40.4906V40.5119V40.5331V40.5544V40.5756V40.5969V40.6182V40.6395V40.6608V40.682V40.7034V40.7247V40.746V40.7673V40.7887V40.81V40.8313V40.8527V40.8741V40.8954V40.9168V40.9382V40.9596V40.981V41.0024V41.0238V41.0452V41.0667V41.0881V41.1096V41.131V41.1525V41.1739V41.1954V41.2169V41.2384V41.2599V41.2814V41.3029V41.3244V41.3459V41.3674V41.389V41.4105V41.432V41.4536V41.4752V41.4967V41.5183V41.5399V41.5615V41.583V41.6046V41.6263V41.6479V41.6695V41.6911V41.7127V41.7344V41.756V41.7777V41.7993V41.821V41.8427V41.8643V41.886V41.9077V41.9294V41.9511V41.9728V41.9945V42.0162V42.0379V42.0597V42.0814V42.1031V42.1249V42.1466V42.1684V42.1902V42.2119V42.2337V42.2555V42.2773V42.2991V42.3209V42.3427V42.3645V42.3863V42.4081V42.4299V42.4518V42.4736V42.4954V42.5173V42.5391V42.561V42.5829V42.6047V42.6266V42.6485V42.6704V42.6923V42.7142V42.7361V42.758V42.7799V42.8018V42.8237V42.8456V42.8676V42.8895V42.9114V42.9334V42.9553V42.9773V42.9992V43.0212V43.0432V43.0651V43.0871V43.1091V43.1311V43.1531V43.1751V43.1971V43.2191V43.2411V43.2631V43.2851V43.3072V43.3292V43.3512V43.3733V43.3953V43.4174V43.4394V43.4615V43.4835V43.5056V43.5277V43.5497V43.5718V43.5939V43.616V43.6381V43.6601V43.6822V43.7043V43.7265V43.7486V43.7707V43.7928V43.8149V43.837V43.8592V43.8813V43.9034V43.9256V43.9477V43.9699V43.992V44.0142V44.0363V44.0585V44.0807V44.1028V44.125V44.1472V44.1694V44.1915V44.2137V44.2359V44.2581V44.2803V44.3025V44.3247V44.3469V44.3691V44.3913V44.4136V44.4358V44.458V44.4802V44.5025V44.5247V44.5469V44.5692V44.5914V44.6136V44.6359V44.6581V44.6804V44.7027V44.7249V44.7472V44.7694V44.7917V44.814V44.8362V44.8585V44.8808V44.9031V44.9254V44.9477V44.9699V44.9922V45.0145V45.0368V45.0591V45.0814V45.1037V45.126V45.1483V45.1707V45.193V45.2153V45.2376V45.2599V45.2822V45.3046V45.3269V45.3492V45.3716V45.3939V45.4162V45.4386V45.4609V45.4832V45.5056V45.5279V45.5503V45.5726V45.595V45.6173V45.6397V45.662V45.6844V45.7068V45.7291V45.7515V45.7739V45.7962V45.8186V45.841V45.8633V45.8857V45.9081V45.9305V45.9528V45.9752V45.9976V46.02V46.0424V46.0647V46.0871V46.1095V46.1319V46.1543V46.1767V46.1991V46.2215V46.2439V46.2663V46.2887V46.3111V46.3335V46.3559V46.3783V46.4007V46.4231V46.4455V46.4679V46.4903V46.5127V46.5351V46.5575V46.5799V46.6023V46.6247V46.6471V46.6696V46.692V46.7144V46.7368V46.7592V46.7816V46.804V46.8265V46.8489V46.8713V46.8937V46.9161V46.9385V46.961V46.9834V47.0058V47.0282V47.0506V47.0731V47.0955V47.1179V47.1403V47.1627V47.1852V47.2076V47.23V47.2524V47.2748V47.2973V47.3197V47.3421V47.3645V47.3869V47.4094V47.4318V47.4542V47.4766V47.499V47.5215V47.5439V47.5663V47.5887V47.6111V47.6335V47.656V47.6784V47.7008V47.7232V47.7456V47.768V47.7904V47.8129V47.8353V47.8577V47.8801V47.9025V47.9249V47.9473V47.9697V47.9921C76.364 58.3356 67.9789 66.7206 57.6354 66.7206H36.8199C26.4764 66.7206 18.0913 58.3357 18.0914 47.9922L18.0914 36.9746L18.0914 25.957Z" stroke="white" stroke-width="0.854398"/>
<path d="M61.8127 28.7386C60.7396 29.1724 59.5862 29.4645 58.3757 29.5962C59.6117 28.9223 60.5609 27.8545 61.0069 26.5819C59.8511 27.206 58.5701 27.6597 57.2065 27.9043C56.1163 26.8453 54.5594 26.1836 52.8384 26.1836C48.9747 26.1836 46.1356 29.4656 47.0082 32.8726C42.0361 32.6458 37.6267 30.477 34.6746 27.1806C33.1067 29.6294 33.8615 32.8328 36.5256 34.455C35.546 34.4262 34.6223 34.1816 33.8165 33.7733C33.7509 36.2973 35.738 38.6587 38.616 39.1843C37.7738 39.3923 36.8513 39.441 35.913 39.2773C36.6739 41.4416 38.8834 43.0162 41.5038 43.0605C38.9879 44.8564 35.8182 45.6587 32.6437 45.3178C35.292 46.8637 38.4386 47.7655 41.8173 47.7655C52.9283 47.7655 59.2058 39.2219 58.8266 31.5592C59.9958 30.7901 61.0106 29.8307 61.8127 28.7386Z" fill="white"/>
<defs>
<filter id="filter0_d_1_110" x="0.3" y="0.202881" width="93.6167" height="92.2425" filterUnits="userSpaceOnUse" color-interpolation-filters="sRGB">
<feFlood flood-opacity="0" result="BackgroundImageFix"/>
<feColorMatrix in="SourceAlpha" type="matrix" values="0 0 0 0 0 0 0 0 0 0 0 0 0 0 0 0 0 0 127 0" result="hardAlpha"/>
<feOffset dy="10"/>
<feGaussianBlur stdDeviation="4.35"/>
<feComposite in2="hardAlpha" operator="out"/>
<feColorMatrix type="matrix" values="0 0 0 0 0.186285 0 0 0 0 0.294934 0 0 0 0 0.604167 0 0 0 1 0"/>
<feBlend mode="normal" in2="BackgroundImageFix" result="effect1_dropShadow_1_110"/>
<feBlend mode="normal" in="SourceGraphic" in2="effect1_dropShadow_1_110" result="shape"/>
</filter>
</defs>
</svg>
