<svg width="34" height="34" viewBox="0 0 34 34" fill="none" xmlns="http://www.w3.org/2000/svg">
<path d="M7.39772 16.5573C7.39772 15.7967 8.0226 15.1719 8.78194 15.1719H11.1167C11.8773 15.1719 12.5286 15.7967 12.5286 16.585V25.3891C12.8001 25.3074 13.1257 25.2257 13.5067 25.1439C14.0222 25.0082 14.4032 24.5468 14.4032 24.0024V13.0786C14.4032 12.318 15.0281 11.6655 15.8151 11.6655H18.1498C18.9105 11.6655 19.5617 12.2903 19.5617 13.0786V23.2154C19.5617 23.2154 20.1325 22.9703 20.702 22.7264C21.1371 22.5366 21.4086 22.1293 21.4086 21.6389V9.54721C21.4086 8.78662 22.0335 8.13412 22.7942 8.13412H25.1289C25.8896 8.13412 26.5144 8.75894 26.5144 9.54721V19.5206C28.5235 18.0534 30.588 16.2871 32.2174 14.1674C32.7065 13.5426 32.8423 12.7267 32.5707 11.9661C29.5834 3.37944 20.1892 -1.18674 11.6084 1.80289C3.02755 4.79253 -1.53378 14.1938 1.45218 22.7818C1.7778 23.7599 2.21284 24.6839 2.7283 25.5803C3.13565 26.2868 3.89631 26.6941 4.71102 26.6124C5.14606 26.5847 5.6892 26.5307 6.36681 26.4489C6.964 26.3949 7.39904 25.8782 7.39904 25.2797L7.39772 16.5573Z" fill="white"/>
<path d="M7.34276 30.6887C14.7015 36.0418 24.9935 34.4112 30.3419 27.0479C32.3786 24.2217 33.4913 20.8247 33.4913 17.3474C33.4913 16.9664 33.4636 16.5868 33.4372 16.2058C27.4376 25.1998 16.3309 29.4114 7.34276 30.6887Z" fill="white"/>
</svg>
