<svg width="95" height="93" viewBox="0 0 95 93" fill="none" xmlns="http://www.w3.org/2000/svg">
<g filter="url(#filter0_d_1_128)">
<rect x="9.64996" y="0.202881" width="76.2167" height="73.5426" rx="6.83519" fill="#EF4EA7"/>
<rect x="10.5044" y="1.05728" width="74.5079" height="71.8338" rx="5.98079" stroke="white" stroke-width="1.7088"/>
</g>
<path d="M18.6606 26.4332C18.6606 16.1037 27.0344 7.72993 37.3639 7.72993H58.1517C68.4813 7.72993 76.855 16.1036 76.855 26.4331V26.4546V26.4761V26.4975V26.519V26.5405V26.562V26.5834V26.6049V26.6264V26.6478V26.6693V26.6908V26.7123V26.7337V26.7552V26.7767V26.7982V26.8196V26.8411V26.8626V26.8841V26.9055V26.927V26.9485V26.9699V26.9914V27.0129V27.0344V27.0558V27.0773V27.0988V27.1203V27.1417V27.1632V27.1847V27.2061V27.2276V27.2491V27.2706V27.292V27.3135V27.335V27.3564V27.3779V27.3994V27.4208V27.4423V27.4638V27.4852V27.5067V27.5282V27.5496V27.5711V27.5925V27.614V27.6355V27.6569V27.6784V27.6998V27.7213V27.7428V27.7642V27.7857V27.8071V27.8286V27.85V27.8715V27.8929V27.9144V27.9358V27.9573V27.9787V28.0001V28.0216V28.043V28.0645V28.0859V28.1073V28.1288V28.1502V28.1716V28.1931V28.2145V28.2359V28.2574V28.2788V28.3002V28.3216V28.343V28.3645V28.3859V28.4073V28.4287V28.4501V28.4715V28.4929V28.5144V28.5358V28.5572V28.5786V28.6V28.6214V28.6428V28.6642V28.6856V28.7069V28.7283V28.7497V28.7711V28.7925V28.8139V28.8353V28.8566V28.878V28.8994V28.9207V28.9421V28.9635V28.9848V29.0062V29.0276V29.0489V29.0703V29.0916V29.113V29.1343V29.1557V29.177V29.1984V29.2197V29.241V29.2624V29.2837V29.305V29.3263V29.3477V29.369V29.3903V29.4116V29.4329V29.4542V29.4755V29.4969V29.5182V29.5394V29.5607V29.582V29.6033V29.6246V29.6459V29.6672V29.6885V29.7097V29.731V29.7523V29.7735V29.7948V29.8161V29.8373V29.8586V29.8798V29.9011V29.9223V29.9435V29.9648V29.986V30.0072V30.0285V30.0497V30.0709V30.0921V30.1133V30.1345V30.1558V30.177V30.1982V30.2193V30.2405V30.2617V30.2829V30.3041V30.3253V30.3464V30.3676V30.3888V30.4099V30.4311V30.4523V30.4734V30.4946V30.5157V30.5368V30.558V30.5791V30.6002V30.6213V30.6425V30.6636V30.6847V30.7058V30.7269V30.748V30.7691V30.7902V30.8113V30.8324V30.8534V30.8745V30.8956V30.9166V30.9377V30.9588V30.9798V31.0009V31.0219V31.0429V31.064V31.085V31.106V31.127V31.1481V31.1691V31.1901V31.2111V31.2321V31.2531V31.2741V31.295V31.316V31.337V31.358V31.3789V31.3999V31.4208V31.4418V31.4627V31.4837V31.5046V31.5255V31.5465V31.5674V31.5883V31.6092V31.6301V31.651V31.6719V31.6928V31.7137V31.7345V31.7554V31.7763V31.7971V31.818V31.8389V31.8597V31.8805V31.9014V31.9222V31.943V31.9638V31.9847V32.0055V32.0263V32.0471V32.0679V32.0886V32.1094V32.1302V32.151V32.1717V32.1925V32.2132V32.234V32.2547V32.2755V32.2962V32.3169V32.3376V32.3583V32.379V32.3997V32.4204V32.4411V32.4618V32.4825V32.5032V32.5238V32.5445V32.5651V32.5858V32.6064V32.627V32.6477V32.6683V32.6889V32.7095V32.7301V32.7507V32.7713V32.7919V32.8124V32.833V32.8536V32.8741V32.8947V32.9152V32.9358V32.9563V32.9768V32.9973V33.0178V33.0383V33.0588V33.0793V33.0998V33.1203V33.1407V33.1612V33.1817V33.2021V33.2226V33.243V33.2634V33.2838V33.3043V33.3247V33.3451V33.3655V33.3858V33.4062V33.4266V33.447V33.4673V33.4877V33.508V33.5283V33.5487V33.569V33.5893V33.6096V33.6299V33.6502V33.6705V33.6908V33.711V33.7313V33.7516V33.7718V33.792V33.8123V33.8325V33.8527V33.8729V33.8931V33.9133V33.9335V33.9537V33.9739V33.994V34.0142V34.0343V34.0545V34.0746V34.0947V34.1148V34.135V34.1551V34.1751V34.1952V34.2153V34.2354V34.2554V34.2755V34.2955V34.3156V34.3356V34.3556V34.3756V34.3956V34.4156V34.4356V34.4556V34.4756V34.4955V34.5155V34.5354V34.5554V34.5753V34.5952V34.6151V34.635V34.6549V34.6748V34.6947V34.7146V34.7344V34.7543V34.7741V34.794V34.8138V34.8336V34.8534V34.8732V34.893V34.9128V34.9326V34.9523V34.9721V34.9918V35.0116V35.0313V35.051V35.0707V35.0904V35.1101V35.1298V35.1495V35.1692V35.1888V35.2085V35.2281V35.2477V35.2673V35.287V35.3066V35.3261V35.3457V35.3653V35.3849V35.4044V35.424V35.4435V35.463V35.4826V35.5021V35.5216V35.541V35.5605V35.58V35.5995V35.6189V35.6383V35.6578V35.6772V35.6966V35.716V35.7354V35.7548V35.7742V35.7935V35.8129V35.8322V35.8516V35.8709V35.8902V35.9095V35.9288V35.9481V35.9673V35.9866V36.0059V36.0251V36.0443V36.0636V36.0828V36.102V36.1212V36.1403V36.1595V36.1787V36.1978V36.217V36.2361V36.2552V36.2743V36.2934V36.3125V36.3316V36.3507V36.3697V36.3888V36.4078V36.4268V36.4458V36.4648V36.4838V36.5028V36.5218V36.5408V36.5597V36.5786V36.5976V36.6165V36.6354V36.6543V36.6732V36.6921V36.7109V36.7298V36.7486V36.7674V36.7863V36.8051V36.8239V36.8427V36.8614V36.8802V36.8989V36.9177V36.9364V36.9551V36.9738V36.9925V37.0113V37.03V37.0487V37.0675V37.0863V37.105V37.1238V37.1426V37.1614V37.1802V37.1991V37.2179V37.2368V37.2556V37.2745V37.2934V37.3123V37.3312V37.3501V37.369V37.388V37.4069V37.4259V37.4449V37.4639V37.4828V37.5018V37.5209V37.5399V37.5589V37.578V37.597V37.6161V37.6352V37.6543V37.6734V37.6925V37.7116V37.7307V37.7499V37.769V37.7882V37.8073V37.8265V37.8457V37.8649V37.8841V37.9034V37.9226V37.9418V37.9611V37.9803V37.9996V38.0189V38.0382V38.0575V38.0768V38.0961V38.1155V38.1348V38.1542V38.1735V38.1929V38.2123V38.2317V38.2511V38.2705V38.2899V38.3093V38.3288V38.3482V38.3677V38.3872V38.4066V38.4261V38.4456V38.4651V38.4847V38.5042V38.5237V38.5433V38.5628V38.5824V38.602V38.6215V38.6411V38.6607V38.6803V38.7V38.7196V38.7392V38.7589V38.7785V38.7982V38.8179V38.8376V38.8573V38.877V38.8967V38.9164V38.9361V38.9559V38.9756V38.9954V39.0151V39.0349V39.0547V39.0745V39.0943V39.1141V39.1339V39.1537V39.1736V39.1934V39.2133V39.2331V39.253V39.2729V39.2927V39.3126V39.3326V39.3525V39.3724V39.3923V39.4122V39.4322V39.4521V39.4721V39.4921V39.5121V39.532V39.552V39.572V39.5921V39.6121V39.6321V39.6521V39.6722V39.6922V39.7123V39.7324V39.7524V39.7725V39.7926V39.8127V39.8328V39.853V39.8731V39.8932V39.9134V39.9335V39.9537V39.9738V39.994V40.0142V40.0344V40.0546V40.0748V40.095V40.1152V40.1354V40.1556V40.1759V40.1961V40.2164V40.2366V40.2569V40.2772V40.2975V40.3178V40.3381V40.3584V40.3787V40.399V40.4193V40.4397V40.46V40.4804V40.5007V40.5211V40.5415V40.5618V40.5822V40.6026V40.623V40.6434V40.6638V40.6843V40.7047V40.7251V40.7456V40.766V40.7865V40.8069V40.8274V40.8479V40.8684V40.8889V40.9094V40.9299V40.9504V40.9709V40.9914V41.0119V41.0325V41.053V41.0736V41.0941V41.1147V41.1352V41.1558V41.1764V41.197V41.2176V41.2382V41.2588V41.2794V41.3V41.3207V41.3413V41.3619V41.3826V41.4032V41.4239V41.4445V41.4652V41.4859V41.5066V41.5272V41.5479V41.5686V41.5893V41.6101V41.6308V41.6515V41.6722V41.693V41.7137V41.7344V41.7552V41.776V41.7967V41.8175V41.8383V41.859V41.8798V41.9006V41.9214V41.9422V41.963V41.9838V42.0047V42.0255V42.0463V42.0671V42.088V42.1088V42.1297V42.1505V42.1714V42.1923V42.2131V42.234V42.2549V42.2758V42.2967V42.3176V42.3385V42.3594V42.3803V42.4012V42.4222V42.4431V42.464V42.485V42.5059V42.5269V42.5478V42.5688V42.5897V42.6107V42.6317V42.6526V42.6736V42.6946V42.7156V42.7366V42.7576V42.7786V42.7996V42.8206V42.8417V42.8627V42.8837V42.9048V42.9258V42.9468V42.9679V42.9889V43.01V43.031V43.0521V43.0732V43.0943V43.1153V43.1364V43.1575V43.1786V43.1997V43.2208V43.2419V43.263V43.2841V43.3052V43.3263V43.3475V43.3686V43.3897V43.4109V43.432V43.4531V43.4743V43.4954V43.5166V43.5377V43.5589V43.5801V43.6012V43.6224V43.6436V43.6648V43.686V43.7071V43.7283V43.7495V43.7707V43.7919V43.8131V43.8343V43.8556V43.8768V43.898V43.9192V43.9404V43.9617V43.9829V44.0041V44.0254V44.0466V44.0679V44.0891V44.1104V44.1316V44.1529V44.1742V44.1954V44.2167V44.238V44.2592V44.2805V44.3018V44.3231V44.3444V44.3656V44.3869V44.4082V44.4295V44.4508V44.4721V44.4934V44.5148V44.5361V44.5574V44.5787V44.6V44.6213V44.6427V44.664V44.6853V44.7067V44.728V44.7493V44.7707V44.792V44.8134V44.8347V44.8561V44.8774V44.8988V44.9201V44.9415V44.9628V44.9842V45.0056V45.0269V45.0483V45.0697V45.0911V45.1124V45.1338V45.1552V45.1766V45.198V45.2193V45.2407V45.2621V45.2835V45.3049V45.3263V45.3477V45.3691V45.3905V45.4119V45.4333V45.4547V45.4761V45.4976V45.519V45.5404V45.5618V45.5832V45.6046V45.6261V45.6475V45.6689V45.6903V45.7118V45.7332V45.7546V45.776V45.7975V45.8189V45.8403V45.8618V45.8832V45.9047V45.9261V45.9475V45.969V45.9904V46.0119V46.0333V46.0548V46.0762V46.0977V46.1191V46.1406V46.162V46.1835V46.2049V46.2264V46.2478V46.2693V46.2908V46.3122V46.3337V46.3551V46.3766V46.3981V46.4195V46.441V46.4625V46.4839V46.5054V46.5269V46.5483V46.5698V46.5913V46.6127V46.6342V46.6557V46.6771V46.6986V46.7201V46.7415V46.763V46.7845V46.806V46.8274V46.8489V46.8704V46.8918V46.9133V46.9348V46.9563V46.9777V46.9992V47.0207V47.0422V47.0636V47.0851V47.1066V47.1281V47.1495V47.171V47.1925V47.2139V47.2354V47.2569V47.2784V47.2998V47.3213V47.3428V47.3643V47.3857V47.4072V47.4287V47.4501V47.4716V47.4931V47.5145C76.855 57.8441 68.4813 66.2178 58.1517 66.2178H37.3638C27.0343 66.2178 18.6606 57.8441 18.6606 47.5146L18.6606 36.9738L18.6606 26.4332Z" stroke="white" stroke-width="0.854398"/>
<path d="M38.3977 35.5573C38.3977 34.7967 39.0226 34.1719 39.7819 34.1719H42.1167C42.8773 34.1719 43.5286 34.7967 43.5286 35.585V44.3891C43.8001 44.3074 44.1257 44.2257 44.5067 44.1439C45.0222 44.0082 45.4032 43.5468 45.4032 43.0024V32.0786C45.4032 31.318 46.0281 30.6655 46.8151 30.6655H49.1498C49.9105 30.6655 50.5617 31.2903 50.5617 32.0786V42.2154C50.5617 42.2154 51.1325 41.9703 51.702 41.7264C52.1371 41.5366 52.4086 41.1293 52.4086 40.6389V28.5472C52.4086 27.7866 53.0335 27.1341 53.7942 27.1341H56.1289C56.8896 27.1341 57.5144 27.7589 57.5144 28.5472V38.5206C59.5235 37.0534 61.588 35.2871 63.2174 33.1674C63.7065 32.5426 63.8423 31.7267 63.5707 30.9661C60.5834 22.3794 51.1892 17.8133 42.6084 20.8029C34.0276 23.7925 29.4662 33.1938 32.4522 41.7818C32.7778 42.7599 33.2128 43.6839 33.7283 44.5803C34.1357 45.2868 34.8963 45.6941 35.711 45.6124C36.1461 45.5847 36.6892 45.5307 37.3668 45.4489C37.964 45.3949 38.399 44.8782 38.399 44.2797L38.3977 35.5573Z" fill="white"/>
<path d="M38.3428 49.6887C45.7015 55.0418 55.9935 53.4112 61.3419 46.0479C63.3786 43.2217 64.4913 39.8247 64.4913 36.3474C64.4913 35.9664 64.4636 35.5868 64.4372 35.2058C58.4376 44.1998 47.3309 48.4114 38.3428 49.6887Z" fill="white"/>
<defs>
<filter id="filter0_d_1_128" x="0.949964" y="0.202881" width="93.6166" height="92.2425" filterUnits="userSpaceOnUse" color-interpolation-filters="sRGB">
<feFlood flood-opacity="0" result="BackgroundImageFix"/>
<feColorMatrix in="SourceAlpha" type="matrix" values="0 0 0 0 0 0 0 0 0 0 0 0 0 0 0 0 0 0 127 0" result="hardAlpha"/>
<feOffset dy="10"/>
<feGaussianBlur stdDeviation="4.35"/>
<feComposite in2="hardAlpha" operator="out"/>
<feColorMatrix type="matrix" values="0 0 0 0 0.186285 0 0 0 0 0.294934 0 0 0 0 0.604167 0 0 0 1 0"/>
<feBlend mode="normal" in2="BackgroundImageFix" result="effect1_dropShadow_1_128"/>
<feBlend mode="normal" in="SourceGraphic" in2="effect1_dropShadow_1_128" result="shape"/>
</filter>
</defs>
</svg>
